<svg height="512" viewBox="0 0 60 60" width="512" xmlns="http://www.w3.org/2000/svg"><g id="Page-1" fill="none" fill-rule="evenodd"><g id="058---Home-Healthcare" fill-rule="nonzero" transform="translate(0 -1)"><g id="Icons" transform="translate(1 1)"><path id="Shape" d="m52 27.29v30.71c0 .5522847-.4477153 1-1 1h-44c-.55228475 0-1-.4477153-1-1v-30.71l23-19.08z" fill="#ffeb3a"/><path id="Shape" d="m29 8.21-1.5 1.244 21.5 17.836v30.71c0 .5522847-.4477153 1-1 1h3c.5522847 0 1-.4477153 1-1v-30.71z" fill="#fdd834"/><path id="Shape" d="m52 8v11.78l-7-5.81v-5.97c0-.55228475.4477153-1 1-1h5c.5522847 0 1 .44771525 1 1z" fill="#f57c00"/><path id="Shape" d="m57.74 25.9-2.49 2.82c-.3609645.4102397-.9843919.4547703-1.4.1l-1.85-1.53-23-19.08-23 19.08-1.85 1.53c-.41560805.3547703-1.03903552.3102397-1.4-.1l-2.49-2.82c-.18520367-.2035065-.27836728-.4743351-.25755257-.7487109.02081471-.2743757.15376824-.5280506.36755257-.7012891l27.98-23.22c.3779117-.30994217.9220883-.30994217 1.3 0l15.35 12.74 7 5.81 5.63 4.67c.2137843.1732385.3467379.4269134.3675526.7012891.0208147.2743758-.0723489.5452044-.2575526.7487109z" fill="#ff9801"/><path id="Shape" d="m57.63 24.45-5.63-4.67-7-5.81-15.35-12.74c-.3779117-.30994217-.9220883-.30994217-1.3 0l-.85.705 14.5 12.035 7 5.81 5.63 4.67c.2137843.1732385.3467379.4269134.3675526.7012891.0208147.2743758-.0723489.5452044-.2575526.7487109l-1.866 2.113.976.807c.4156081.3547703 1.0390355.3102397 1.4-.1l2.49-2.82c.1852037-.2035065.2783673-.4743351.2575526-.7487109-.0208147-.2743757-.1537683-.5280506-.3675526-.7012891z" fill="#f57c00"/><circle id="Oval" cx="29" cy="39" fill="#02a9f4" r="16"/><path id="Shape" d="m29 23c-.506 0-1.006.03-1.5.076 8.2180365.7714055 14.4992559 7.669838 14.4992559 15.924s-6.2812194 15.1525945-14.4992559 15.924c.494.046.994.076 1.5.076 8.836556 0 16-7.163444 16-16s-7.163444-16-16-16z" fill="#0377bc"/><path id="Shape" d="m39.526 35.232-2-3.464c-.1322777-.2300127-.3505457-.3980252-.6067475-.4670459s-.5293312-.0333905-.7592525.0990459l-4.16 2.4v-4.8c0-.5522847-.4477153-1-1-1h-4c-.5522847 0-1 .4477153-1 1v4.8l-4.16-2.4c-.4782803-.2761293-1.0898496-.1122682-1.366.366l-2 3.464c-.1338745.2300374-.1705215.5039531-.1018259.7610922.0686955.2571391.2370652.4762839.4678259.6089078l4.16 2.4-4.16 2.4c-.4782682.2761504-.6421293.8877197-.366 1.366l2 3.464c.2761504.4782682.8877197.6421293 1.366.366l4.16-2.396v4.8c0 .5522847.4477153 1 1 1h4c.5522847 0 1-.4477153 1-1v-4.8l4.16 2.4c.4782803.2761293 1.0898496.1122682 1.366-.366l2-3.464c.1338745-.2300374.1705215-.5039531.1018259-.7610922-.0686955-.2571391-.2370652-.4762839-.4678259-.6089078l-4.16-2.4 4.16-2.4c.2302162-.1326188.3981945-.351399.4668611-.6080547.0686667-.2566557.0323765-.5300867-.1008611-.7599453z" fill="#f44335"/></g><g id="Icons_copy" fill="#000"><path id="Shape" d="m52 7h-5c-1.1045695 0-2 .8954305-2 2v3.84l-13.714-11.377c-.7463162-.61806673-1.8266838-.61806673-2.573 0l-27.984 23.217c-.41990831.3482464-.68067231.8518682-.72269959 1.3957729-.04202728.5439046.138274 1.0816074.49969959 1.4902271l2.494 2.814c.7202112.8198883 1.96305842.9153212 2.8.215l.2-.172v28.577c0 1.1045695.8954305 2 2 2h44c1.1045695 0 2-.8954305 2-2v-28.577l.207.172c.8349944.6984234 2.0747364.6029904 2.793-.215l2.49-2.814c.3620779-.4082509.5429016-.9460058.5010496-1.4900807-.0418519-.544075-.3027931-1.047848-.7230496-1.3959193l-5.268-4.374v-11.306c0-1.1045695-.8954305-2-2-2zm-5 2h5v9.647l-5-4.147zm5 50h-44v-30.236l22-18.251 22 18.251zm3.505-29.946c-.0058327.0057171-.0151673.0057171-.021 0l-24.845-20.61c-.3704282-.30772435-.9075718-.30772435-1.278 0l-24.861 20.61-2.494-2.835 28.004-23.219 27.99 23.24z"/><path id="Shape" d="m26 30v3.072l-2.66-1.536c-.4594478-.2655219-1.0055835-.3375687-1.5181707-.2002787-.5125871.1372901-.9496011.4726613-1.2148293.9322787l-2 3.463c-.2655219.4594478-.3375687 1.0055835-.2002787 1.5181707.1372901.5125871.4726613.9496011.9322787 1.2148293l2.661 1.536-2.659 1.535c-.4599569.2648935-.7957524.7017596-.9334254 1.2143755-.1376729.512616-.0659305 1.0589342.1994254 1.5186245l2 3.465c.5526434.9561734 1.7757012 1.2834265 2.732.731l2.661-1.536v3.072c0 1.1045695.8954305 2 2 2h4c1.1045695 0 2-.8954305 2-2v-3.072l2.66 1.536c.4594478.2655219 1.0055835.3375687 1.5181707.2002787.5125871-.1372901.9496011-.4726613 1.2148293-.9322787l2-3.463c.2655219-.4594478.3375687-1.0055835.2002787-1.5181707-.1372901-.5125871-.4726613-.9496011-.9322787-1.2148293l-2.661-1.536 2.659-1.535c.4599569-.2648935.7957524-.7017596.9334254-1.2143755.1376729-.512616.0659305-1.0589342-.1994254-1.5186245l-2-3.465c-.5526434-.9561734-1.7757012-1.2834265-2.732-.731l-2.661 1.536v-3.072c0-1.1045695-.8954305-2-2-2h-4c-1.1045695 0-2 .8954305-2 2zm6.5 5.67c.3094011.1786328.6905989.1786328 1 0l4.16-2.4 2 3.463-4.16 2.4c-.3093763.1786394-.499956.5087526-.499956.866s.1905797.6873606.499956.866l4.16 2.4-2 3.463-4.16-2.4c-.3103266-.1791757-.6928036-.1786094-1.0025983.0014846-.3097947.1800939-.4995463.5121832-.4974017.8705154v4.8h-4v-4.8c-.0000091-.3572611-.1906116-.6873798-.500011-.8660064-.3093994-.1786265-.6905919-.1786241-.999989.0000064l-4.16 2.4-2-3.463 4.16-2.4c.3093763-.1786394.499956-.5087526.499956-.866s-.1905797-.6873606-.499956-.866l-4.16-2.4 2-3.463 4.16 2.4c.3109477.1795497.6942891.1786076 1.0043505-.0024683.3100615-.1810759.4992414-.5144862.4956495-.8735317v-4.8h4v4.8c-.001424.3586848.1893658.690659.5.87z"/><path id="Shape" d="m13 40c0 9.3888407 7.6111593 17 17 17s17-7.6111593 17-17-7.6111593-17-17-17c-9.3845001.010471-16.989529 7.6154999-17 17zm32 0c0 8.2842712-6.7157288 15-15 15s-15-6.7157288-15-15 6.7157288-15 15-15c8.2803876.0093685 14.9906315 6.7196124 15 15z"/></g></g></g></svg>